<svg width="782" height="280" viewBox="0 0 782 280" fill="none" xmlns="http://www.w3.org/2000/svg">
<path d="M340.196 133.675C336.836 133.675 333.439 133.152 330.004 132.107C326.644 131.061 323.471 129.643 320.484 127.851C317.572 125.984 315.071 123.931 312.98 121.691L322.948 112.059C325.188 114.373 327.876 116.24 331.012 117.659C334.223 119.077 337.209 119.787 339.972 119.787C343.481 119.787 346.431 118.779 348.82 116.763C351.284 114.672 352.516 112.208 352.516 109.371C352.516 107.056 351.657 105.077 349.94 103.435C348.223 101.717 346.095 100.485 343.556 99.7387C336.911 97.9467 331.236 96.0427 326.532 94.0267C321.903 92.0107 318.468 89.36 316.228 86.0747C313.988 82.7894 313.167 78.384 313.764 72.8587C314.287 68.528 315.705 64.944 318.02 62.1067C320.409 59.1947 323.396 57.0293 326.98 55.6107C330.639 54.192 334.671 53.4827 339.076 53.4827C343.033 53.4827 347.177 54.1174 351.508 55.3867C355.839 56.5814 360.132 58.5973 364.388 61.4347L354.868 71.2907C352.703 70.096 350.351 69.088 347.812 68.2667C345.273 67.4454 342.66 66.9974 339.972 66.9227C337.881 66.848 335.865 67.072 333.924 67.5947C332.057 68.0427 330.489 68.864 329.22 70.0587C327.951 71.1787 327.279 72.7094 327.204 74.6507C327.129 76.816 327.689 78.496 328.884 79.6907C330.079 80.8854 331.721 81.856 333.812 82.6027C335.977 83.3494 338.479 84.1707 341.316 85.0667C346.543 86.4854 350.985 88.128 354.644 89.9947C358.303 91.7867 361.103 94.2134 363.044 97.2747C364.985 100.261 365.956 104.293 365.956 109.371C365.956 113.925 364.799 118.032 362.484 121.691C360.169 125.349 357.071 128.261 353.188 130.427C349.305 132.592 344.975 133.675 340.196 133.675ZM376.006 132.555V54.1547H389.446V91.5627L403.11 76.3307H420.694L399.75 99.9627L422.934 132.555H407.142L389.446 109.147V132.555H376.006ZM435.589 69.9467C433.274 69.9467 431.333 69.1627 429.765 67.5947C428.197 66.0267 427.413 64.0854 427.413 61.7707C427.413 59.5307 428.197 57.6267 429.765 56.0587C431.333 54.4907 433.274 53.7067 435.589 53.7067C437.829 53.7067 439.733 54.4907 441.301 56.0587C442.869 57.6267 443.653 59.5307 443.653 61.7707C443.653 64.0854 442.869 66.0267 441.301 67.5947C439.733 69.1627 437.829 69.9467 435.589 69.9467ZM441.749 132.555H429.429V76.5547H441.749V132.555ZM468.306 132.555H454.866V54.1547H468.306V132.555ZM495.103 132.555H481.663V54.1547H495.103V132.555ZM532.368 133.675C529.008 133.675 525.611 133.152 522.176 132.107C518.816 131.061 515.643 129.643 512.656 127.851C509.744 125.984 507.243 123.931 505.152 121.691L515.12 112.059C517.36 114.373 520.048 116.24 523.184 117.659C526.395 119.077 529.381 119.787 532.144 119.787C535.653 119.787 538.603 118.779 540.992 116.763C543.456 114.672 544.688 112.208 544.688 109.371C544.688 107.056 543.829 105.077 542.112 103.435C540.395 101.717 538.267 100.485 535.728 99.7387C529.083 97.9467 523.408 96.0427 518.704 94.0267C514.075 92.0107 510.64 89.36 508.4 86.0747C506.16 82.7894 505.339 78.384 505.936 72.8587C506.459 68.528 507.877 64.944 510.192 62.1067C512.581 59.1947 515.568 57.0293 519.152 55.6107C522.811 54.192 526.843 53.4827 531.248 53.4827C535.205 53.4827 539.349 54.1174 543.68 55.3867C548.011 56.5814 552.304 58.5973 556.56 61.4347L547.04 71.2907C544.875 70.096 542.523 69.088 539.984 68.2667C537.445 67.4454 534.832 66.9974 532.144 66.9227C530.053 66.848 528.037 67.072 526.096 67.5947C524.229 68.0427 522.661 68.864 521.392 70.0587C520.123 71.1787 519.451 72.7094 519.376 74.6507C519.301 76.816 519.861 78.496 521.056 79.6907C522.251 80.8854 523.893 81.856 525.984 82.6027C528.149 83.3494 530.651 84.1707 533.488 85.0667C538.715 86.4854 543.157 88.128 546.816 89.9947C550.475 91.7867 553.275 94.2134 555.216 97.2747C557.157 100.261 558.128 104.293 558.128 109.371C558.128 113.925 556.971 118.032 554.656 121.691C552.341 125.349 549.243 128.261 545.36 130.427C541.477 132.592 537.147 133.675 532.368 133.675ZM616.786 132.555H603.346V100.299C603.346 96.4907 602.338 93.728 600.322 92.0107C598.381 90.2934 595.693 89.4347 592.258 89.4347C589.122 89.4347 586.583 90.4427 584.642 92.4587C582.775 94.4 581.842 96.4534 581.842 98.6187V132.555H568.402V54.1547H581.842V79.5787C583.634 78.0854 585.762 77.1147 588.226 76.6667C590.765 76.144 593.378 75.9947 596.066 76.2187C602.861 77.04 608.013 79.6534 611.522 84.0587C615.031 88.3894 616.786 93.8027 616.786 100.299V132.555ZM643.041 133.115C637.366 132.816 633.073 131.211 630.161 128.299C627.249 125.312 625.793 121.205 625.793 115.979C625.793 112.171 626.763 108.923 628.704 106.235C630.646 103.472 633.222 101.307 636.433 99.7387C639.643 98.1707 643.19 97.2 647.073 96.8267C651.03 96.4534 655.025 96.7147 659.057 97.6107V94.1387C659.057 91.7494 658.086 90.032 656.145 88.9867C654.203 87.9414 651.814 87.456 648.977 87.5307C646.214 87.6054 643.414 88.1654 640.577 89.2107C637.814 90.1814 635.574 91.6 633.857 93.4667L626.353 85.2907C629.19 82.528 632.55 80.3627 636.433 78.7947C640.315 77.2267 644.31 76.3307 648.417 76.1067C652.598 75.8827 656.518 76.368 660.177 77.5627C663.91 78.7574 666.971 80.6987 669.361 83.3867C671.227 85.4774 672.273 88.24 672.497 91.6747C672.721 95.1094 672.833 98.88 672.833 102.987V132.555H659.169V127.403C656.854 129.568 654.278 131.099 651.441 131.995C648.603 132.816 645.803 133.189 643.041 133.115ZM658.721 116.763V107.131C650.955 106.533 645.542 107.019 642.481 108.587C639.494 110.155 638.001 112.581 638.001 115.867C638.001 117.957 638.71 119.488 640.129 120.459C641.622 121.355 643.451 121.803 645.617 121.803C647.857 121.728 650.134 121.28 652.449 120.459C654.838 119.563 656.929 118.331 658.721 116.763ZM684.006 132.555V76.5547H697.334V80.6987C700.246 77.712 703.718 76.256 707.75 76.3307C711.857 76.4053 716.374 77.2267 721.302 78.7947L714.806 90.3307C711.969 89.36 709.169 89.0614 706.406 89.4347C703.718 89.808 701.516 90.6294 699.798 91.8987C698.081 93.168 697.26 94.6987 697.334 96.4907V132.555H684.006ZM777.222 109.707H738.022C738.32 113.067 739.59 115.643 741.83 117.435C744.07 119.227 746.832 120.272 750.118 120.571C753.403 120.795 756.763 120.347 760.198 119.227C763.707 118.032 766.843 116.24 769.606 113.851L776.998 124.043C772.891 127.477 768.71 129.941 764.454 131.435C760.272 132.853 756.128 133.563 752.022 133.563C742.539 133.563 735.408 130.912 730.63 125.611C725.926 120.309 723.574 112.805 723.574 103.099C723.574 97.5734 724.656 92.7574 726.822 88.6507C729.062 84.544 732.198 81.3707 736.23 79.1307C740.336 76.8907 745.152 75.808 750.678 75.8827C762.774 76.032 770.838 80.7734 774.87 90.1067C775.99 92.7947 776.699 95.744 776.998 98.9547C777.371 102.165 777.446 105.749 777.222 109.707ZM751.91 88.4267C747.355 88.4267 743.883 89.6587 741.494 92.1227C739.179 94.5867 738.022 97.312 738.022 100.299H765.686C765.686 97.2374 764.491 94.512 762.102 92.1227C759.787 89.6587 756.39 88.4267 751.91 88.4267Z" fill="white"/>
<path d="M311.06 199.555L326.42 154.755H331.86L347.22 199.555H342.74L338.836 188.035H319.444L315.54 199.555H311.06ZM329.108 159.747L320.66 184.515H337.62L329.108 159.747ZM374.546 195.523C372.327 197.485 370.002 198.808 367.57 199.491C365.18 200.131 362.855 200.195 360.594 199.683C358.332 199.213 356.284 198.253 354.45 196.803C352.615 195.309 351.164 193.432 350.098 191.171C349.031 188.867 348.498 186.243 348.498 183.299C348.498 180.397 349.031 177.837 350.098 175.619C351.164 173.4 352.615 171.608 354.45 170.243C356.284 168.877 358.332 167.981 360.594 167.555C362.855 167.128 365.202 167.256 367.634 167.939C370.066 168.579 372.391 169.837 374.61 171.715L372.05 174.787C369.959 173.123 367.783 172.12 365.522 171.779C363.26 171.437 361.148 171.693 359.186 172.547C357.266 173.357 355.708 174.68 354.514 176.515C353.319 178.349 352.722 180.611 352.722 183.299C352.722 186.157 353.34 188.589 354.578 190.595C355.815 192.557 357.415 194.008 359.378 194.947C361.383 195.843 363.495 196.099 365.714 195.715C367.975 195.331 370.108 194.179 372.114 192.259L374.546 195.523ZM389.25 199.875C387.287 199.832 385.495 199.469 383.874 198.787C382.252 198.104 380.951 197.059 379.97 195.651C378.988 194.243 378.498 192.493 378.498 190.403C378.498 187.117 379.436 184.557 381.314 182.723C383.191 180.888 385.794 179.736 389.122 179.267C392.45 178.797 396.29 178.947 400.642 179.715V177.283C400.642 175.619 400.13 174.317 399.106 173.379C398.124 172.397 396.844 171.736 395.266 171.395C393.73 171.053 392.087 171.011 390.338 171.267C388.631 171.523 387.031 172.056 385.538 172.867C384.087 173.677 382.978 174.723 382.21 176.003L379.458 173.123C380.738 171.544 382.252 170.285 384.002 169.347C385.794 168.408 387.671 167.811 389.634 167.555C391.596 167.256 393.495 167.256 395.33 167.555C397.207 167.853 398.871 168.429 400.322 169.283C401.986 170.136 403.116 171.267 403.714 172.675C404.354 174.083 404.716 175.725 404.802 177.603C404.887 179.437 404.951 181.443 404.994 183.619L404.93 199.555H400.706V196.547C399.084 197.656 397.25 198.488 395.202 199.043C393.196 199.597 391.212 199.875 389.25 199.875ZM400.642 192.451V183.107C397.143 182.637 394.007 182.531 391.234 182.787C388.503 183.043 386.348 183.789 384.77 185.027C383.234 186.264 382.466 188.056 382.466 190.403C382.466 191.896 382.892 193.069 383.746 193.923C384.642 194.776 385.772 195.352 387.138 195.651C388.546 195.907 390.06 195.949 391.682 195.779C393.346 195.608 394.967 195.245 396.546 194.691C398.124 194.093 399.49 193.347 400.642 192.451ZM423.868 199.683C419.644 199.427 416.401 197.805 414.14 194.819C411.878 191.832 410.748 188.013 410.748 183.363C410.748 180.163 411.324 177.368 412.476 174.979C413.628 172.547 415.292 170.648 417.468 169.283C419.686 167.917 422.332 167.235 425.404 167.235C426.726 167.235 428.07 167.32 429.436 167.491C430.801 167.619 432.401 168.109 434.236 168.963V154.755H438.396V199.555H434.236V196.419C432.998 197.315 431.505 198.125 429.756 198.851C428.049 199.576 426.086 199.853 423.868 199.683ZM434.236 192.835V172.995C430.865 171.587 427.708 171.032 424.764 171.331C421.862 171.629 419.516 172.781 417.724 174.787C415.932 176.792 415.036 179.651 415.036 183.363C415.036 186.221 415.59 188.632 416.7 190.595C417.809 192.557 419.281 193.987 421.116 194.883C422.993 195.736 425.062 196.013 427.324 195.715C429.585 195.416 431.889 194.456 434.236 192.835ZM474.265 184.643H448.537C448.58 187.672 449.326 190.104 450.777 191.939C452.228 193.773 454.084 195.011 456.345 195.651C458.649 196.248 461.124 196.269 463.769 195.715C466.414 195.16 468.953 193.987 471.385 192.195L473.561 195.523C471.556 197.059 469.444 198.189 467.225 198.915C465.006 199.64 462.766 200.045 460.505 200.131C455.214 200.301 451.14 198.829 448.281 195.715C445.422 192.6 443.993 188.269 443.993 182.723C443.993 177.944 445.316 174.168 447.961 171.395C450.606 168.621 454.51 167.235 459.673 167.235C462.958 167.235 465.774 167.917 468.121 169.283C470.51 170.648 472.26 172.675 473.369 175.363C473.881 176.6 474.201 178.008 474.329 179.587C474.457 181.165 474.436 182.851 474.265 184.643ZM459.801 171.203C457.796 171.203 455.94 171.544 454.233 172.227C452.526 172.909 451.14 173.976 450.073 175.427C449.049 176.835 448.537 178.691 448.537 180.995H470.425C470.425 177.752 469.465 175.32 467.545 173.699C465.625 172.035 463.044 171.203 459.801 171.203ZM529.403 199.555H525.243V180.483C525.243 177.411 524.411 175.085 522.747 173.507C521.125 171.928 519.013 171.139 516.411 171.139C513.765 171.139 511.589 171.928 509.882 173.507C508.176 175.085 507.323 177.411 507.323 180.483V199.555H503.227V180.483C503.227 177.283 502.352 174.936 500.603 173.443C498.853 171.907 496.613 171.139 493.883 171.139C492.603 171.139 491.259 171.48 489.851 172.163C488.485 172.803 487.312 173.827 486.331 175.235C485.392 176.6 484.923 178.349 484.923 180.483V199.555H480.763V167.555H484.923V171.139C485.989 169.859 487.291 168.899 488.827 168.259C490.405 167.576 492.069 167.213 493.819 167.171C495.952 167.171 498.064 167.619 500.155 168.515C502.245 169.368 504.016 170.755 505.467 172.675C506.661 170.797 508.261 169.432 510.267 168.579C512.272 167.683 514.405 167.235 516.667 167.235C518.843 167.235 520.891 167.747 522.811 168.771C524.773 169.752 526.352 171.245 527.547 173.251C528.784 175.213 529.403 177.624 529.403 180.483V199.555ZM535.918 210.499V206.467C537.198 206.467 538.393 206.147 539.502 205.507C540.654 204.867 541.614 204.035 542.382 203.011C543.15 202.029 543.577 201.027 543.662 200.003L531.31 167.555H535.918L546.222 194.755L555.95 167.555H560.686L548.974 198.659C548.121 200.963 547.118 202.989 545.966 204.739C544.814 206.531 543.427 207.917 541.806 208.899C540.185 209.923 538.222 210.456 535.918 210.499Z" fill="white"/>
<path d="M256.5 68.0547L219 45.0547L115 227.555L2.5 160.555V211.555L126.5 278.555L251 211.555V170.055L174 211.555L256.5 68.0547Z" fill="#70BA9B" stroke="black"/>
<path d="M0.5 113.555V62.0547L127.5 0.554688L196.5 35.5547L178 67.0547L129 40.5547L43 86.0547L138 138.555L113 176.555L0.5 113.555Z" fill="#09C273" stroke="black"/>
<path d="M268.5 32.0547C268.5 40.339 261.784 47.0547 253.5 47.0547C245.216 47.0547 238.5 40.339 238.5 32.0547C238.5 23.7704 245.216 17.0547 253.5 17.0547C261.784 17.0547 268.5 23.7704 268.5 32.0547Z" fill="#FEDF48"/>
</svg>
